<svg xmlns="http://www.w3.org/2000/svg" xml:space="preserve" viewBox="0 0 3486 1000"><path fill="#FABF37" fill-rule="evenodd" d="M421.489 421.877c50.675 35.834 89.036 87.961 107.539 148.755 28.237-61.805 49.313-127.095 49.313-184.323 0-19.44-2.851-38.21-8.145-55.919-58.164 15.726-109.523 48.01-148.707 91.487" clip-rule="evenodd"/><path fill="#DA7F0A" fill-rule="evenodd" d="M421.489 421.877c39.042-42.867 91.074-75.902 148.696-91.484-3.512-11.832-8.097-23.304-13.647-33.81l-.023-.002.021.04c-1.732.86-3.454 1.739-5.168 2.631-54.31 27.189-99.655 70.191-129.879 122.625" clip-rule="evenodd"/><path fill="#A7A5A6" d="M374.062 368.956a4.777 4.777 0 0 1 4.778 4.778 4.777 4.777 0 1 1-9.555 0 4.778 4.778 0 0 1 4.777-4.778"/><path fill="#3AB6D7" fill-rule="evenodd" d="M306.361 208.802c24.059-10.776 50.393-16.863 78.439-16.863 28.654 0 55.85 6.26 80.317 17.482-20.491-16.428-44.677-28.435-71.126-34.556-17.778-3.861-36.235-5.896-55.168-5.896-.615 0-1.232-.01-1.849-.025-76.017-.534-145.182-33.792-192.265-86.47 29.159 60.259 89.453 105.357 154.26 124.361 2.116.62 4.803 1.337 7.392 1.967" clip-rule="evenodd"/><path fill="#78CB19" fill-rule="evenodd" d="M101.531 205.471c39.21-4.096 78.418-1.824 115.496 9.022-8.019-7.854-15.512-16.303-22.463-25.137-32.577-1.023-63.918 4.685-93.033 16.115" clip-rule="evenodd"/><path fill="#EE980D" fill-rule="evenodd" d="M232.703 267.042c-56.143-5.99-96.077 25.704-96.726 26.364 11.797-7.895 24.926-11.682 40.177-11.682 14.267 0 28.227 4.743 39.351 11.723 5.134-9.15 10.835-17.848 17.198-26.405" clip-rule="evenodd"/><path fill="#D13926" fill-rule="evenodd" d="M479.027 216.517c-27.914-15.681-59.115-24.727-93.372-24.727-106.891 0-193.541 87.017-193.541 194.358 0 173.441 193.541 420.963 193.541 420.963s78.764-100.739 135.8-218.713c-11.163-56.128-38.801-107.133-77.48-146.228l-.065.06c-15.262 15.137-36.27 24.489-59.465 24.489-46.637 0-84.444-37.8-84.444-84.429 0-43.937 33.569-80.023 76.46-84.046 28.389-33.277 63.304-61.18 102.566-81.727" clip-rule="evenodd"/><path fill="#231F20" d="M384.194 356.853c-13.985 0-25.323 11.337-25.323 25.325 0 13.986 11.338 25.324 25.323 25.324 13.987 0 25.324-11.338 25.324-25.324 0-13.988-11.337-25.325-25.324-25.325m-10.132 21.659a4.777 4.777 0 0 1-4.777-4.777 4.777 4.777 0 1 1 9.555 0 4.778 4.778 0 0 1-4.778 4.777"/><path fill="#F6C229" d="M221.12 256.969c-30.884 2.405-61.798 15.884-85.143 36.437 2.693-2.235 42.108-32.191 96.726-26.364a232.622 232.622 0 0 0-11.583-10.073"/><path fill="#F3B623" fill-rule="evenodd" d="M212.335 250.179h-.001c-28.768 7.107-55.858 23.114-76.357 43.227 23.266-20.498 54.341-33.982 85.143-36.438a236.943 236.943 0 0 0-8.785-6.789" clip-rule="evenodd"/><path fill="#4CAE09" fill-rule="evenodd" d="M232.703 267.042c6.271-7.704 13.229-15.763 20.678-22.775-.003.189 0 .102 0 0-27.495-16.941-58.617-29.449-92.314-35.485-19.033-3.41-58.635-3.665-59.536-3.312 3.731.488 7.765 1.215 11.508 1.886 46.327 8.3 87.548 30.589 119.664 59.686" clip-rule="evenodd"/><path fill="#B6DD57" d="M217.026 214.493c-.074-.021.074.021 0 0-36.763-10.755-76.62-12.978-115.496-9.022 6.378-.215 42.085.185 59.536 3.311 33.697 6.037 64.82 18.546 92.314 35.485-.001-.001.002 0 0 0-12.976-8.818-25.178-18.77-36.354-29.774"/><path fill="#209BC7" fill-rule="evenodd" d="M253.38 244.267c.167-.156-.18.157 0 0 11.063-10.339 23.795-19.812 37.038-27.344-.113-.043.119.043 0 0-65.397-22.187-118.436-71.226-145.71-134.45 14.065 67.021 54.116 124.722 108.672 161.794" clip-rule="evenodd"/><path fill="#4FCAE3" d="M306.361 208.802a173.058 173.058 0 0 1-7.392-1.967c-64.807-19.004-125.101-64.102-154.26-124.361 27.273 63.221 80.315 112.262 145.708 134.45a192.934 192.934 0 0 1 15.944-8.122"/><path fill="#CA3322" fill-rule="evenodd" d="M529.029 570.632c-15.474-50.839-44.841-95.609-83.675-129.866-.476.495-.958.984-1.445 1.466v.001l.002-.002.064-.06c38.681 39.094 66.318 90.1 77.481 146.227 3.708-7.672 8.383-19.54 7.573-17.766" clip-rule="evenodd"/><path fill="#A92F1E" fill-rule="evenodd" d="M421.489 421.877c-9.698 9.396-22.833 15.175-37.295 15.175-29.847 0-54.042-24.568-54.042-54.874a55.362 55.362 0 0 1 4.998-23.047c11.44-21.77 25.35-42.178 41.317-60.893-42.895 4.021-76.466 40.113-76.466 84.052 0 46.629 37.808 84.43 84.444 84.43 23.199 0 44.21-9.356 59.472-24.496a89.06 89.06 0 0 0 1.431-1.452l.001-.009a283.748 283.748 0 0 0-23.86-18.886" clip-rule="evenodd"/><path fill="#ECECEC" fill-rule="evenodd" d="M479.028 216.518c-61.342 32.102-112.097 82.133-143.878 142.614a55.354 55.354 0 0 0-4.998 23.046c0 30.306 24.196 54.874 54.042 54.874 14.485 0 27.593-5.753 37.295-15.175 30.225-52.538 75.491-95.397 129.879-122.625a301.958 301.958 0 0 1 5.169-2.631c-17.489-33.7-44.526-61.605-77.509-80.103m-94.834 190.985c-13.986 0-25.324-11.338-25.324-25.324 0-13.987 11.338-25.325 25.324-25.325 13.987 0 25.324 11.338 25.324 25.325 0 13.986-11.337 25.324-25.324 25.324" clip-rule="evenodd"/><path fill="#6A3460" d="M3198.944 624.823c24.646 0 40.931 11.003 33.889 70.419-7.042 55.895-26.847 70.419-51.494 70.419-24.206 0-40.931-14.524-33.889-70.419 7.042-59.416 26.847-70.419 51.494-70.419m-25.527 187.931c63.817 0 108.269-31.689 118.832-117.952 10.563-87.144-24.206-117.512-87.143-117.512-60.737 0-106.069 31.248-116.632 117.952-11.003 86.703 24.647 117.512 84.943 117.512m-162.838-266.273h61.176l7.922-65.137h-61.176l-7.922 65.137zm56.775 34.77h-61.176l-27.288 225.781h61.177l27.287-225.781zm-106.067 14.964c-28.167-15.844-60.296-19.806-80.541-19.806-90.665 0-123.674 60.737-131.156 122.794-7.482 58.536 12.764 112.23 76.581 112.23 14.083 0 32.569-1.32 50.613-14.964l-1.76 13.644c-5.722 44.452-24.646 52.374-50.174 52.374-18.045 0-51.054-4.841-79.661-12.323l-13.204 47.092c27.728 10.123 60.297 15.845 84.503 15.845 54.135 0 108.71-23.327 118.832-105.629l25.967-211.257zm-151.401 100.787c4.402-33.449 13.644-73.5 60.737-73.5 8.362 0 17.605.44 26.847 4.401l-15.844 126.755c-11.883 7.922-21.126 9.242-29.928 9.242-36.97 0-46.213-28.607-41.812-66.898m-75.698-100.787c-28.168-15.844-60.297-19.806-80.542-19.806-90.665 0-123.674 60.737-131.156 122.794-7.482 58.536 12.764 112.23 76.581 112.23 14.084 0 32.569-1.32 50.614-14.964l-1.761 13.644c-5.721 44.452-24.646 52.374-50.173 52.374-18.045 0-51.054-4.841-79.662-12.323l-13.203 47.092c27.727 10.123 60.296 15.845 84.502 15.845 54.135 0 108.71-23.327 118.833-105.629l25.967-211.257zm-151.401 100.787c4.401-33.449 13.643-73.5 60.736-73.5 8.362 0 17.605.44 26.847 4.401l-15.844 126.755c-11.883 7.922-21.126 9.242-29.928 9.242-36.97 0-46.213-28.607-41.811-66.898m-171.646 92.425c4.841 15.845 20.246 22.886 40.051 22.886 14.524 0 30.809-3.961 46.653-11.003l2.2-40.05c-4.401 2.64-10.123 4.401-15.844 4.401-7.482 0-13.644-3.521-12.763-12.324l19.805-158.883c-28.168-12.763-54.575-17.604-79.221-17.604-88.905 0-123.674 60.296-131.596 120.592-7.482 59.857 9.682 114.431 76.58 114.431 22.447 0 42.252-10.122 54.135-22.446m.44-33.449c-11.443 7.482-24.206 9.683-32.568 9.683-32.569 0-41.812-31.249-37.851-64.258 4.841-37.85 18.925-77.901 61.177-77.901 8.362 0 14.964.44 24.206 5.722l-14.964 126.754zm-208.61-209.497h61.176l7.922-65.137h-61.176l-7.922 65.137zm56.775 34.77h-61.177l-27.287 225.781h61.177l27.287-225.781zm-268.027 225.781h62.497l134.237-294h-62.938l-93.745 220.06-39.171-220.06h-62.937l62.057 294zm-303.24 0h59.416l21.126-175.168c11.883-6.601 30.368-9.682 44.892-9.682 20.245 0 35.209 8.362 31.248 38.29l-17.605 146.56h58.976l18.486-151.841c7.922-66.018-31.689-78.782-75.701-78.782-46.212 0-95.506 17.165-115.752 25.968l-25.086 204.655zm-72.614-260.551h61.177l7.922-65.137h-61.177l-7.922 65.137zm56.775 34.77h-61.176l-27.288 225.781h61.177l27.287-225.781zm-227.981 153.161c-4.841 37.851-9.682 78.342 57.656 78.342 7.482 0 29.488-.881 49.293-9.243l-.88-43.572c-12.323 3.081-24.647 3.961-30.368 3.961-14.524 0-17.165-7.482-15.404-23.766l14.524-116.192h58.976l8.362-42.691h-62.057l7.042-56.336-60.737 5.282-6.601 51.494h-39.611l-4.841 42.251h38.29l-13.644 110.47zm-133.355 55.015c4.842 15.845 20.246 22.886 40.051 22.886 14.524 0 30.808-3.961 46.653-11.003l2.2-40.05c-4.401 2.64-10.122 4.401-15.844 4.401-7.482 0-13.644-3.521-12.763-12.324l19.805-158.883c-28.168-12.763-54.575-17.604-79.221-17.604-88.905 0-123.674 60.296-131.596 120.592-7.482 59.857 9.682 114.431 76.581 114.431 22.446 0 42.251-10.122 54.134-22.446m.44-33.449c-11.443 7.482-24.206 9.683-32.568 9.683-32.569 0-41.812-31.249-37.851-64.258 4.842-37.85 18.925-77.901 61.177-77.901 8.362 0 14.964.44 24.206 5.722l-14.964 126.754zm-215.221-117.512c10.563-7.042 34.329-10.563 53.255-10.563 5.721 0 16.284.441 22.886 1.321l12.323-50.174c-7.042-1.32-14.084-1.76-20.245-1.76-24.207 0-49.734 9.242-69.099 25.087v-21.126h-52.374l-27.288 225.781h59.856l20.686-168.566zm-153.155-91.985h61.176l7.922-65.137H951.29l-7.922 65.137zm56.775 34.77h-61.177l-27.287 225.781h61.177l27.287-225.781zm-243.82 74.38 11.443-95.506c8.803-1.76 19.366-3.521 30.809-3.521 25.967 0 52.814 9.683 47.092 53.695-4.841 39.61-30.808 47.973-59.856 47.973-10.123 0-20.245-.44-29.488-2.641m-81.862 151.401h63.377l13.204-108.709c15.404 3.52 29.928 5.281 44.452 5.281 56.335 0 102.548-28.168 110.91-95.066 10.123-82.742-44.452-98.587-102.108-98.587-34.329 0-69.979 3.521-94.625 8.803l-35.21 288.278z"/></svg>